{
    "patcher": {
        "fileversion": 1,
        "appversion": {
            "major": 9,
            "minor": 1,
            "revision": 2,
            "architecture": "x64",
            "modernui": 1
        },
        "classnamespace": "box",
        "rect": [ 34.0, 100.0, 1047.0, 848.0 ],
        "boxes": [
            {
                "box": {
                    "id": "obj-4",
                    "maxclass": "newobj",
                    "numinlets": 1,
                    "numoutlets": 1,
                    "outlettype": [ "" ],
                    "patching_rect": [ 249.41402864456177, 473.0, 70.0, 22.0 ],
                    "text": "loadmess 1"
                }
            },
            {
                "box": {
                    "id": "obj-1",
                    "maxclass": "preset",
                    "numinlets": 1,
                    "numoutlets": 5,
                    "outlettype": [ "preset", "int", "preset", "int", "" ],
                    "patching_rect": [ 249.41402864456177, 510.0, 100.0, 40.0 ],
                    "preset_data": [
                        {
                            "number": 1,
                            "data": [ 5, "obj-2", "toggle", "int", 1, 6, "obj-11", "gain~", "list", 114, 10.0, 68, "obj-35", "multislider", "list", 0.0, 0.0, 0.0, 0.0, 0.0, 0.0, 0.751351519210919, 0.751351519210919, 0.751351519210919, 0.724324492183891, 0.697297465156865, 0.697297465156865, 0.670270438129837, 0.670270438129837, 0.670270438129837, 0.670270438129837, 0.670270438129837, 0.670270438129837, 0.656756924616324, 0.64324341110281, 0.64324341110281, 0.64324341110281, 0.64324341110281, 0.64324341110281, 0.629729897589297, 0.616216384075783, 0.616216384075783, 0.616216384075783, 0.616216384075783, 0.616216384075783, 0.616216384075783, 0.616216384075783, 0.0, 0.0, 0.0, 0.0, 0.0, 0.0, 0.0, 0.0, 0.0, 0.0, 0.0, 0.0, 0.0, 0.0, 0.0, 0.0, 0.0, 0.0, 0.0, 0.0, 0.0, 0.0, 0.0, 0.0, 0.0, 0.0, 0.0, 0.0, 0.0, 0.0, 0.0, 0.0, 68, "obj-37", "multislider", "list", 0.0, 0.0, 0.0, 0.0, 0.0, 0.0, 0.0, 0.0, 0.0, 0.0, 0.0, 0.0, 0.778378546237946, 0.778378546237946, 0.778378546237946, 0.778378546237946, 0.778378546237946, 0.778378546237946, 0.778378546237946, 0.778378546237946, 0.778378546237946, 0.778378546237946, 0.778378546237946, 0.778378546237946, 0.778378546237946, 0.778378546237946, 0.778378546237946, 0.778378546237946, 0.778378546237946, 0.778378546237946, 0.778378546237946, 0.778378546237946, 0.778378546237946, 0.778378546237946, 0.778378546237946, 0.778378546237946, 0.778378546237946, 0.778378546237946, 0.0, 0.0, 0.0, 0.0, 0.0, 0.0, 0.0, 0.0, 0.0, 0.0, 0.0, 0.0, 0.0, 0.0, 0.0, 0.0, 0.0, 0.0, 0.0, 0.0, 0.0, 0.0, 0.0, 0.0, 0.0, 0.0, 68, "obj-41", "multislider", "list", 0.0, 0.0, 0.0, 0.0, 0.0, 0.0, 0.0, 0.0, 0.0, 0.0, 0.0, 0.0, 0.0, 0.0, 0.0, 0.0, 0.0, 0.64324341110281, 0.64324341110281, 0.64324341110281, 0.64324341110281, 0.64324341110281, 0.64324341110281, 0.64324341110281, 0.64324341110281, 0.64324341110281, 0.64324341110281, 0.64324341110281, 0.64324341110281, 0.64324341110281, 0.64324341110281, 0.64324341110281, 0.64324341110281, 0.64324341110281, 0.64324341110281, 0.64324341110281, 0.64324341110281, 0.0, 0.0, 0.0, 0.0, 0.0, 0.0, 0.0, 0.0, 0.0, 0.0, 0.0, 0.0, 0.0, 0.0, 0.0, 0.0, 0.0, 0.0, 0.0, 0.0, 0.0, 0.0, 0.0, 0.0, 0.0, 0.0, 0.0, 68, "obj-39", "multislider", "list", 0.0, 0.0, 0.0, 0.0, 0.0, 0.0, 0.0, 0.0, 0.0, 0.0, 0.0, 0.0, 0.0, 0.0, 0.0, 0.0, 0.0, 0.0, 0.0, 0.0, 0.697297465156865, 0.697297465156865, 0.697297465156865, 0.697297465156865, 0.697297465156865, 0.697297465156865, 0.697297465156865, 0.697297465156865, 0.697297465156865, 0.697297465156865, 0.697297465156865, 0.697297465156865, 0.697297465156865, 0.697297465156865, 0.697297465156865, 0.697297465156865, 0.697297465156865, 0.697297465156865, 0.0, 0.0, 0.0, 0.0, 0.0, 0.0, 0.0, 0.0, 0.0, 0.0, 0.0, 0.0, 0.0, 0.0, 0.0, 0.0, 0.0, 0.0, 0.0, 0.0, 0.0, 0.0, 0.0, 0.0, 0.0, 0.0, 5, "obj-56", "number", "int", 157, 5, "obj-58", "number", "int", 31, 5, "obj-62", "number", "float", 0.100000001490116, 5, "obj-74", "number", "float", 0.5, 5, "obj-72", "number", "float", 1.0, 5, "obj-68", "umenu", "int", 1, 5, "obj-87", "number", "float", 10.0, 5, "obj-92", "number", "float", 0.0 ]
                        }
                    ]
                }
            },
            {
                "box": {
                    "format": 6,
                    "id": "obj-92",
                    "maxclass": "flonum",
                    "numinlets": 1,
                    "numoutlets": 2,
                    "outlettype": [ "", "bang" ],
                    "parameter_enable": 0,
                    "patching_rect": [ 441.7944646179676, 816.6667056083679, 50.0, 22.0 ]
                }
            },
            {
                "box": {
                    "id": "obj-90",
                    "maxclass": "newobj",
                    "numinlets": 6,
                    "numoutlets": 1,
                    "outlettype": [ "signal" ],
                    "patching_rect": [ 426.0444646179676, 782.2222595214844, 141.0, 22.0 ],
                    "text": "scale~ -1. 1. 1000. 5000."
                }
            },
            {
                "box": {
                    "id": "obj-89",
                    "maxclass": "newobj",
                    "numinlets": 1,
                    "numoutlets": 1,
                    "outlettype": [ "signal" ],
                    "patching_rect": [ 426.0444646179676, 752.2222580909729, 50.0, 22.0 ],
                    "text": "rand~ 1"
                }
            },
            {
                "box": {
                    "id": "obj-88",
                    "maxclass": "newobj",
                    "numinlets": 3,
                    "numoutlets": 4,
                    "outlettype": [ "signal", "signal", "signal", "signal" ],
                    "patching_rect": [ 410.2944646179676, 849.4444849491119, 50.5, 22.0 ],
                    "text": "svf~"
                }
            },
            {
                "box": {
                    "format": 6,
                    "id": "obj-87",
                    "maxclass": "flonum",
                    "numinlets": 1,
                    "numoutlets": 2,
                    "outlettype": [ "", "bang" ],
                    "parameter_enable": 0,
                    "patching_rect": [ 587.2222502231598, 566.666693687439, 50.0, 22.0 ]
                }
            },
            {
                "box": {
                    "id": "obj-85",
                    "maxclass": "newobj",
                    "numinlets": 1,
                    "numoutlets": 1,
                    "outlettype": [ "" ],
                    "patching_rect": [ 480.0000228881836, 599.444473028183, 157.0, 22.0 ],
                    "text": "expr random(150\\, 250) / $f1"
                }
            },
            {
                "box": {
                    "id": "obj-83",
                    "maxclass": "newobj",
                    "numinlets": 1,
                    "numoutlets": 1,
                    "outlettype": [ "" ],
                    "patching_rect": [ 249.41402864456177, 599.5475150644779, 144.0, 22.0 ],
                    "text": "expr random(0\\, 99) / 100."
                }
            },
            {
                "box": {
                    "id": "obj-82",
                    "maxclass": "newobj",
                    "numinlets": 2,
                    "numoutlets": 1,
                    "outlettype": [ "signal" ],
                    "patching_rect": [ 238.91402864456177, 658.8889203071594, 29.5, 22.0 ],
                    "text": "*~"
                }
            },
            {
                "box": {
                    "id": "obj-81",
                    "maxclass": "newobj",
                    "numinlets": 1,
                    "numoutlets": 1,
                    "outlettype": [ "signal" ],
                    "patching_rect": [ 409.5022650063038, 678.2805472314358, 49.0, 22.0 ],
                    "text": "tapout~"
                }
            },
            {
                "box": {
                    "id": "obj-80",
                    "maxclass": "newobj",
                    "numinlets": 1,
                    "numoutlets": 1,
                    "outlettype": [ "tapconnect" ],
                    "patching_rect": [ 409.5022650063038, 642.0814519822598, 65.0, 22.0 ],
                    "text": "tapin~ 500"
                }
            },
            {
                "box": {
                    "id": "obj-79",
                    "maxclass": "button",
                    "numinlets": 1,
                    "numoutlets": 1,
                    "outlettype": [ "bang" ],
                    "parameter_enable": 0,
                    "patching_rect": [ 659.400011241436, 98.0, 24.0, 24.0 ]
                }
            },
            {
                "box": {
                    "id": "obj-78",
                    "maxclass": "newobj",
                    "numinlets": 2,
                    "numoutlets": 1,
                    "outlettype": [ "" ],
                    "patching_rect": [ 659.400011241436, 127.14932206273079, 122.0, 22.0 ],
                    "text": "random @range 8 32"
                }
            },
            {
                "box": {
                    "fontface": 0,
                    "fontname": "Arial",
                    "fontsize": 13.0,
                    "id": "obj-68",
                    "items": [ "fold", ",", "wrap", ",", "clip" ],
                    "maxclass": "umenu",
                    "numinlets": 1,
                    "numoutlets": 3,
                    "outlettype": [ "int", "", "" ],
                    "parameter_enable": 0,
                    "patching_rect": [ 662.7777886688709, 642.0814519822598, 60.0, 23.0 ]
                }
            },
            {
                "box": {
                    "fontname": "Arial",
                    "fontsize": 13.0,
                    "id": "obj-69",
                    "maxclass": "message",
                    "numinlets": 2,
                    "numoutlets": 1,
                    "outlettype": [ "" ],
                    "patching_rect": [ 662.2222330868244, 677.7805472314358, 62.0, 23.0 ],
                    "text": "mode $1"
                }
            },
            {
                "box": {
                    "fontname": "Arial",
                    "fontsize": 13.0,
                    "id": "obj-71",
                    "maxclass": "newobj",
                    "numinlets": 1,
                    "numoutlets": 1,
                    "outlettype": [ "signal" ],
                    "patching_rect": [ 590.5555630028248, 677.7805472314358, 64.0, 23.0 ],
                    "text": "sig~ 0.25"
                }
            },
            {
                "box": {
                    "fontname": "Arial",
                    "fontsize": 13.0,
                    "format": 6,
                    "id": "obj-72",
                    "maxclass": "flonum",
                    "numinlets": 1,
                    "numoutlets": 2,
                    "outlettype": [ "", "bang" ],
                    "parameter_enable": 0,
                    "patching_rect": [ 590.5555630028248, 642.0814519822598, 52.0, 23.0 ],
                    "triscale": 0.9
                }
            },
            {
                "box": {
                    "fontname": "Arial",
                    "fontsize": 13.0,
                    "id": "obj-73",
                    "maxclass": "newobj",
                    "numinlets": 1,
                    "numoutlets": 1,
                    "outlettype": [ "signal" ],
                    "patching_rect": [ 500.00000312924385, 677.7805472314358, 68.0, 23.0 ],
                    "text": "sig~ -0.25"
                }
            },
            {
                "box": {
                    "fontname": "Arial",
                    "fontsize": 13.0,
                    "format": 6,
                    "id": "obj-74",
                    "maxclass": "flonum",
                    "numinlets": 1,
                    "numoutlets": 2,
                    "outlettype": [ "", "bang" ],
                    "parameter_enable": 0,
                    "patching_rect": [ 500.00000312924385, 642.0814519822598, 52.0, 23.0 ],
                    "triscale": 0.9
                }
            },
            {
                "box": {
                    "fontname": "Arial",
                    "fontsize": 13.0,
                    "id": "obj-77",
                    "maxclass": "newobj",
                    "numinlets": 3,
                    "numoutlets": 1,
                    "outlettype": [ "signal" ],
                    "patching_rect": [ 409.444463968277, 722.2222566604614, 200.0, 23.0 ],
                    "text": "pong~ 0 -0.25 0.25"
                }
            },
            {
                "box": {
                    "id": "obj-65",
                    "maxclass": "button",
                    "numinlets": 1,
                    "numoutlets": 1,
                    "outlettype": [ "bang" ],
                    "parameter_enable": 0,
                    "patching_rect": [ 517.8000030517578, 98.0, 24.0, 24.0 ]
                }
            },
            {
                "box": {
                    "id": "obj-63",
                    "maxclass": "newobj",
                    "numinlets": 2,
                    "numoutlets": 1,
                    "outlettype": [ "" ],
                    "patching_rect": [ 517.8000030517578, 127.14932206273079, 135.0, 22.0 ],
                    "text": "random @range 50 200"
                }
            },
            {
                "box": {
                    "format": 6,
                    "id": "obj-62",
                    "maxclass": "flonum",
                    "numinlets": 1,
                    "numoutlets": 2,
                    "outlettype": [ "", "bang" ],
                    "parameter_enable": 0,
                    "patching_rect": [ 453.3936679959297, 546.1538495719433, 50.0, 22.0 ]
                }
            },
            {
                "box": {
                    "id": "obj-60",
                    "maxclass": "newobj",
                    "numinlets": 1,
                    "numoutlets": 1,
                    "outlettype": [ "signal" ],
                    "patching_rect": [ 453.3936679959297, 573.3031710088253, 31.0, 22.0 ],
                    "text": "sig~"
                }
            },
            {
                "box": {
                    "id": "obj-59",
                    "maxclass": "newobj",
                    "numinlets": 2,
                    "numoutlets": 2,
                    "outlettype": [ "signal", "" ],
                    "patching_rect": [ 409.5022650063038, 599.5475150644779, 63.0, 22.0 ],
                    "text": "pitchshift~"
                }
            },
            {
                "box": {
                    "id": "obj-58",
                    "maxclass": "number",
                    "numinlets": 1,
                    "numoutlets": 2,
                    "outlettype": [ "", "bang" ],
                    "parameter_enable": 0,
                    "patching_rect": [ 775.400011241436, 166.40000247955322, 50.0, 22.0 ]
                }
            },
            {
                "box": {
                    "id": "obj-56",
                    "maxclass": "number",
                    "numinlets": 1,
                    "numoutlets": 2,
                    "outlettype": [ "", "bang" ],
                    "parameter_enable": 0,
                    "patching_rect": [ 453.0, 39.0, 50.0, 22.0 ]
                }
            },
            {
                "box": {
                    "id": "obj-51",
                    "maxclass": "button",
                    "numinlets": 1,
                    "numoutlets": 1,
                    "outlettype": [ "bang" ],
                    "parameter_enable": 0,
                    "patching_rect": [ 735.400011241436, 195.60000330209732, 24.0, 24.0 ]
                }
            },
            {
                "box": {
                    "id": "obj-52",
                    "maxclass": "button",
                    "numinlets": 1,
                    "numoutlets": 1,
                    "outlettype": [ "bang" ],
                    "parameter_enable": 0,
                    "patching_rect": [ 633.4666762948036, 195.60000330209732, 24.0, 24.0 ]
                }
            },
            {
                "box": {
                    "id": "obj-53",
                    "maxclass": "button",
                    "numinlets": 1,
                    "numoutlets": 1,
                    "outlettype": [ "bang" ],
                    "parameter_enable": 0,
                    "patching_rect": [ 531.5333413481712, 195.60000330209732, 24.0, 24.0 ]
                }
            },
            {
                "box": {
                    "id": "obj-54",
                    "maxclass": "button",
                    "numinlets": 1,
                    "numoutlets": 1,
                    "outlettype": [ "bang" ],
                    "parameter_enable": 0,
                    "patching_rect": [ 429.60000640153885, 195.60000330209732, 24.0, 24.0 ]
                }
            },
            {
                "box": {
                    "id": "obj-50",
                    "maxclass": "button",
                    "numinlets": 1,
                    "numoutlets": 1,
                    "outlettype": [ "bang" ],
                    "parameter_enable": 0,
                    "patching_rect": [ 735.400011241436, 282.4000042080879, 24.0, 24.0 ]
                }
            },
            {
                "box": {
                    "id": "obj-49",
                    "maxclass": "button",
                    "numinlets": 1,
                    "numoutlets": 1,
                    "outlettype": [ "bang" ],
                    "parameter_enable": 0,
                    "patching_rect": [ 633.4666762948036, 282.4000042080879, 24.0, 24.0 ]
                }
            },
            {
                "box": {
                    "id": "obj-48",
                    "maxclass": "button",
                    "numinlets": 1,
                    "numoutlets": 1,
                    "outlettype": [ "bang" ],
                    "parameter_enable": 0,
                    "patching_rect": [ 531.5333413481712, 282.4000042080879, 24.0, 24.0 ]
                }
            },
            {
                "box": {
                    "id": "obj-47",
                    "maxclass": "button",
                    "numinlets": 1,
                    "numoutlets": 1,
                    "outlettype": [ "bang" ],
                    "parameter_enable": 0,
                    "patching_rect": [ 429.60000640153885, 282.4000042080879, 24.0, 24.0 ]
                }
            },
            {
                "box": {
                    "fontname": "Arial",
                    "fontsize": 13.0,
                    "id": "obj-38",
                    "maxclass": "newobj",
                    "numinlets": 1,
                    "numoutlets": 1,
                    "outlettype": [ "" ],
                    "patching_rect": [ 734.4000109434128, 461.600006878376, 79.0, 23.0 ],
                    "text": "prepend set"
                }
            },
            {
                "box": {
                    "bgcolor": [ 1.0, 1.0, 1.0, 1.0 ],
                    "candicane2": [ 0.145098, 0.203922, 0.356863, 1.0 ],
                    "candicane3": [ 0.290196, 0.411765, 0.713726, 1.0 ],
                    "candicane4": [ 0.439216, 0.619608, 0.070588, 1.0 ],
                    "candicane5": [ 0.584314, 0.827451, 0.431373, 1.0 ],
                    "candicane6": [ 0.733333, 0.035294, 0.788235, 1.0 ],
                    "candicane7": [ 0.878431, 0.243137, 0.145098, 1.0 ],
                    "candicane8": [ 0.027451, 0.447059, 0.501961, 1.0 ],
                    "id": "obj-39",
                    "maxclass": "multislider",
                    "numinlets": 1,
                    "numoutlets": 2,
                    "outlettype": [ "", "" ],
                    "parameter_enable": 0,
                    "patching_rect": [ 735.2000109553337, 416.800006210804, 79.0, 37.0 ],
                    "peakcolor": [ 0.498039, 0.498039, 0.498039, 1.0 ],
                    "setminmax": [ 0.0, 1.0 ],
                    "setstyle": 1,
                    "size": 64,
                    "slidercolor": [ 0.337255, 0.176471, 0.329412, 1.0 ]
                }
            },
            {
                "box": {
                    "fontname": "Arial",
                    "fontsize": 13.0,
                    "id": "obj-40",
                    "maxclass": "newobj",
                    "numinlets": 1,
                    "numoutlets": 1,
                    "outlettype": [ "" ],
                    "patching_rect": [ 632.8000094294548, 461.600006878376, 79.0, 23.0 ],
                    "text": "prepend set"
                }
            },
            {
                "box": {
                    "bgcolor": [ 1.0, 1.0, 1.0, 1.0 ],
                    "candicane2": [ 0.145098, 0.203922, 0.356863, 1.0 ],
                    "candicane3": [ 0.290196, 0.411765, 0.713726, 1.0 ],
                    "candicane4": [ 0.439216, 0.619608, 0.070588, 1.0 ],
                    "candicane5": [ 0.584314, 0.827451, 0.431373, 1.0 ],
                    "candicane6": [ 0.733333, 0.035294, 0.788235, 1.0 ],
                    "candicane7": [ 0.878431, 0.243137, 0.145098, 1.0 ],
                    "candicane8": [ 0.027451, 0.447059, 0.501961, 1.0 ],
                    "id": "obj-41",
                    "maxclass": "multislider",
                    "numinlets": 1,
                    "numoutlets": 2,
                    "outlettype": [ "", "" ],
                    "parameter_enable": 0,
                    "patching_rect": [ 633.6000094413757, 416.800006210804, 79.0, 37.0 ],
                    "peakcolor": [ 0.498039, 0.498039, 0.498039, 1.0 ],
                    "setminmax": [ 0.0, 1.0 ],
                    "setstyle": 1,
                    "size": 64,
                    "slidercolor": [ 0.337255, 0.176471, 0.329412, 1.0 ]
                }
            },
            {
                "box": {
                    "fontname": "Arial",
                    "fontsize": 13.0,
                    "id": "obj-36",
                    "maxclass": "newobj",
                    "numinlets": 1,
                    "numoutlets": 1,
                    "outlettype": [ "" ],
                    "patching_rect": [ 530.4000079035759, 461.600006878376, 79.0, 23.0 ],
                    "text": "prepend set"
                }
            },
            {
                "box": {
                    "bgcolor": [ 1.0, 1.0, 1.0, 1.0 ],
                    "candicane2": [ 0.145098, 0.203922, 0.356863, 1.0 ],
                    "candicane3": [ 0.290196, 0.411765, 0.713726, 1.0 ],
                    "candicane4": [ 0.439216, 0.619608, 0.070588, 1.0 ],
                    "candicane5": [ 0.584314, 0.827451, 0.431373, 1.0 ],
                    "candicane6": [ 0.733333, 0.035294, 0.788235, 1.0 ],
                    "candicane7": [ 0.878431, 0.243137, 0.145098, 1.0 ],
                    "candicane8": [ 0.027451, 0.447059, 0.501961, 1.0 ],
                    "id": "obj-37",
                    "maxclass": "multislider",
                    "numinlets": 1,
                    "numoutlets": 2,
                    "outlettype": [ "", "" ],
                    "parameter_enable": 0,
                    "patching_rect": [ 531.2000079154968, 416.800006210804, 79.0, 37.0 ],
                    "peakcolor": [ 0.498039, 0.498039, 0.498039, 1.0 ],
                    "setminmax": [ 0.0, 1.0 ],
                    "setstyle": 1,
                    "size": 64,
                    "slidercolor": [ 0.337255, 0.176471, 0.329412, 1.0 ]
                }
            },
            {
                "box": {
                    "fontname": "Arial",
                    "fontsize": 13.0,
                    "id": "obj-34",
                    "maxclass": "newobj",
                    "numinlets": 1,
                    "numoutlets": 1,
                    "outlettype": [ "" ],
                    "patching_rect": [ 428.8000063896179, 461.600006878376, 79.0, 23.0 ],
                    "text": "prepend set"
                }
            },
            {
                "box": {
                    "bgcolor": [ 1.0, 1.0, 1.0, 1.0 ],
                    "candicane2": [ 0.145098, 0.203922, 0.356863, 1.0 ],
                    "candicane3": [ 0.290196, 0.411765, 0.713726, 1.0 ],
                    "candicane4": [ 0.439216, 0.619608, 0.070588, 1.0 ],
                    "candicane5": [ 0.584314, 0.827451, 0.431373, 1.0 ],
                    "candicane6": [ 0.733333, 0.035294, 0.788235, 1.0 ],
                    "candicane7": [ 0.878431, 0.243137, 0.145098, 1.0 ],
                    "candicane8": [ 0.027451, 0.447059, 0.501961, 1.0 ],
                    "id": "obj-35",
                    "maxclass": "multislider",
                    "numinlets": 1,
                    "numoutlets": 2,
                    "outlettype": [ "", "" ],
                    "parameter_enable": 0,
                    "patching_rect": [ 429.60000640153885, 416.800006210804, 79.0, 37.0 ],
                    "peakcolor": [ 0.498039, 0.498039, 0.498039, 1.0 ],
                    "setminmax": [ 0.0, 1.0 ],
                    "setstyle": 1,
                    "size": 64,
                    "slidercolor": [ 0.337255, 0.176471, 0.329412, 1.0 ]
                }
            },
            {
                "box": {
                    "id": "obj-28",
                    "maxclass": "newobj",
                    "numinlets": 2,
                    "numoutlets": 1,
                    "outlettype": [ "" ],
                    "patching_rect": [ 735.400011241436, 221.60000330209732, 59.0, 22.0 ],
                    "text": "random 8"
                }
            },
            {
                "box": {
                    "id": "obj-29",
                    "maxclass": "newobj",
                    "numinlets": 2,
                    "numoutlets": 1,
                    "outlettype": [ "" ],
                    "patching_rect": [ 735.2000109553337, 316.00000470876694, 59.0, 22.0 ],
                    "text": "random 8"
                }
            },
            {
                "box": {
                    "id": "obj-30",
                    "maxclass": "newobj",
                    "numinlets": 1,
                    "numoutlets": 1,
                    "outlettype": [ "signal" ],
                    "patching_rect": [ 715.2000106573105, 493.60000735521317, 39.0, 22.0 ],
                    "text": "click~"
                }
            },
            {
                "box": {
                    "id": "obj-31",
                    "maxclass": "newobj",
                    "numinlets": 2,
                    "numoutlets": 2,
                    "outlettype": [ "bang", "" ],
                    "patching_rect": [ 715.2000106573105, 379.2000056505203, 50.0, 22.0 ],
                    "text": "select 0"
                }
            },
            {
                "box": {
                    "id": "obj-32",
                    "maxclass": "newobj",
                    "numinlets": 2,
                    "numoutlets": 1,
                    "outlettype": [ "int" ],
                    "patching_rect": [ 715.2000106573105, 250.40000373125076, 39.199993908405304, 22.0 ],
                    "text": "+"
                }
            },
            {
                "box": {
                    "id": "obj-33",
                    "maxclass": "newobj",
                    "numinlets": 2,
                    "numoutlets": 1,
                    "outlettype": [ "int" ],
                    "patching_rect": [ 715.2000106573105, 346.40000516176224, 39.20000058412552, 22.0 ],
                    "text": "%"
                }
            },
            {
                "box": {
                    "id": "obj-22",
                    "maxclass": "newobj",
                    "numinlets": 2,
                    "numoutlets": 1,
                    "outlettype": [ "" ],
                    "patching_rect": [ 633.4666762948036, 221.60000330209732, 59.0, 22.0 ],
                    "text": "random 8"
                }
            },
            {
                "box": {
                    "id": "obj-23",
                    "maxclass": "newobj",
                    "numinlets": 2,
                    "numoutlets": 1,
                    "outlettype": [ "" ],
                    "patching_rect": [ 633.6000094413757, 316.00000470876694, 59.0, 22.0 ],
                    "text": "random 8"
                }
            },
            {
                "box": {
                    "id": "obj-24",
                    "maxclass": "newobj",
                    "numinlets": 1,
                    "numoutlets": 1,
                    "outlettype": [ "signal" ],
                    "patching_rect": [ 613.6000091433525, 493.60000735521317, 39.0, 22.0 ],
                    "text": "click~"
                }
            },
            {
                "box": {
                    "id": "obj-25",
                    "maxclass": "newobj",
                    "numinlets": 2,
                    "numoutlets": 2,
                    "outlettype": [ "bang", "" ],
                    "patching_rect": [ 613.6000091433525, 379.2000056505203, 50.0, 22.0 ],
                    "text": "select 0"
                }
            },
            {
                "box": {
                    "id": "obj-26",
                    "maxclass": "newobj",
                    "numinlets": 2,
                    "numoutlets": 1,
                    "outlettype": [ "int" ],
                    "patching_rect": [ 613.6000091433525, 250.40000373125076, 39.199993908405304, 22.0 ],
                    "text": "+"
                }
            },
            {
                "box": {
                    "id": "obj-27",
                    "maxclass": "newobj",
                    "numinlets": 2,
                    "numoutlets": 1,
                    "outlettype": [ "int" ],
                    "patching_rect": [ 613.6000091433525, 346.40000516176224, 39.20000058412552, 22.0 ],
                    "text": "%"
                }
            },
            {
                "box": {
                    "id": "obj-16",
                    "maxclass": "newobj",
                    "numinlets": 2,
                    "numoutlets": 1,
                    "outlettype": [ "" ],
                    "patching_rect": [ 531.5333413481712, 221.60000330209732, 59.0, 22.0 ],
                    "text": "random 8"
                }
            },
            {
                "box": {
                    "id": "obj-17",
                    "maxclass": "newobj",
                    "numinlets": 2,
                    "numoutlets": 1,
                    "outlettype": [ "" ],
                    "patching_rect": [ 531.2000079154968, 316.00000470876694, 59.0, 22.0 ],
                    "text": "random 8"
                }
            },
            {
                "box": {
                    "id": "obj-18",
                    "maxclass": "newobj",
                    "numinlets": 1,
                    "numoutlets": 1,
                    "outlettype": [ "signal" ],
                    "patching_rect": [ 511.2000076174736, 493.60000735521317, 39.0, 22.0 ],
                    "text": "click~"
                }
            },
            {
                "box": {
                    "id": "obj-19",
                    "maxclass": "newobj",
                    "numinlets": 2,
                    "numoutlets": 2,
                    "outlettype": [ "bang", "" ],
                    "patching_rect": [ 511.2000076174736, 379.2000056505203, 50.0, 22.0 ],
                    "text": "select 0"
                }
            },
            {
                "box": {
                    "id": "obj-20",
                    "maxclass": "newobj",
                    "numinlets": 2,
                    "numoutlets": 1,
                    "outlettype": [ "int" ],
                    "patching_rect": [ 511.2000076174736, 250.40000373125076, 39.199993908405304, 22.0 ],
                    "text": "+"
                }
            },
            {
                "box": {
                    "id": "obj-21",
                    "maxclass": "newobj",
                    "numinlets": 2,
                    "numoutlets": 1,
                    "outlettype": [ "int" ],
                    "patching_rect": [ 511.2000076174736, 346.40000516176224, 39.20000058412552, 22.0 ],
                    "text": "%"
                }
            },
            {
                "box": {
                    "id": "obj-15",
                    "maxclass": "newobj",
                    "numinlets": 1,
                    "numoutlets": 4,
                    "outlettype": [ "", "", "", "" ],
                    "patching_rect": [ 429.60000640153885, 166.40000247955322, 324.80000483989716, 22.0 ],
                    "text": "cycle 4"
                }
            },
            {
                "box": {
                    "id": "obj-14",
                    "maxclass": "newobj",
                    "numinlets": 2,
                    "numoutlets": 1,
                    "outlettype": [ "" ],
                    "patching_rect": [ 429.60000640153885, 221.60000330209732, 59.0, 22.0 ],
                    "text": "random 8"
                }
            },
            {
                "box": {
                    "id": "obj-13",
                    "maxclass": "newobj",
                    "numinlets": 2,
                    "numoutlets": 1,
                    "outlettype": [ "" ],
                    "patching_rect": [ 429.60000640153885, 316.00000470876694, 59.0, 22.0 ],
                    "text": "random 8"
                }
            },
            {
                "box": {
                    "id": "obj-12",
                    "maxclass": "ezdac~",
                    "numinlets": 2,
                    "numoutlets": 0,
                    "patching_rect": [ 410.2944646179676, 920.5555994510651, 45.0, 45.0 ]
                }
            },
            {
                "box": {
                    "id": "obj-11",
                    "maxclass": "gain~",
                    "multichannelvariant": 0,
                    "numinlets": 1,
                    "numoutlets": 2,
                    "outlettype": [ "signal", "" ],
                    "parameter_enable": 1,
                    "patching_rect": [ 410.2944646179676, 879.4444863796234, 87.20000129938126, 20.000000298023224 ],
                    "saved_attribute_attributes": {
                        "valueof": {
                            "parameter_initial": [ 44.0 ],
                            "parameter_initial_enable": 1,
                            "parameter_longname": "gain~",
                            "parameter_mmax": 157.0,
                            "parameter_modmode": 3,
                            "parameter_shortname": "gain~",
                            "parameter_type": 0
                        }
                    },
                    "varname": "gain~"
                }
            },
            {
                "box": {
                    "id": "obj-10",
                    "maxclass": "newobj",
                    "numinlets": 1,
                    "numoutlets": 1,
                    "outlettype": [ "signal" ],
                    "patching_rect": [ 409.6000061035156, 493.60000735521317, 39.0, 22.0 ],
                    "text": "click~"
                }
            },
            {
                "box": {
                    "id": "obj-9",
                    "maxclass": "newobj",
                    "numinlets": 2,
                    "numoutlets": 2,
                    "outlettype": [ "bang", "" ],
                    "patching_rect": [ 409.6000061035156, 379.2000056505203, 50.0, 22.0 ],
                    "text": "select 0"
                }
            },
            {
                "box": {
                    "id": "obj-8",
                    "maxclass": "newobj",
                    "numinlets": 2,
                    "numoutlets": 1,
                    "outlettype": [ "int" ],
                    "patching_rect": [ 409.6000061035156, 250.40000373125076, 39.199993908405304, 22.0 ],
                    "text": "+"
                }
            },
            {
                "box": {
                    "id": "obj-7",
                    "maxclass": "newobj",
                    "numinlets": 2,
                    "numoutlets": 1,
                    "outlettype": [ "int" ],
                    "patching_rect": [ 409.6000061035156, 346.40000516176224, 39.20000058412552, 22.0 ],
                    "text": "%"
                }
            },
            {
                "box": {
                    "id": "obj-6",
                    "maxclass": "newobj",
                    "numinlets": 5,
                    "numoutlets": 4,
                    "outlettype": [ "int", "", "", "int" ],
                    "patching_rect": [ 409.0, 99.0, 61.0, 22.0 ],
                    "text": "counter"
                }
            },
            {
                "box": {
                    "id": "obj-3",
                    "maxclass": "newobj",
                    "numinlets": 2,
                    "numoutlets": 1,
                    "outlettype": [ "bang" ],
                    "patching_rect": [ 409.0, 70.0, 63.0, 22.0 ],
                    "text": "metro 200"
                }
            },
            {
                "box": {
                    "id": "obj-2",
                    "maxclass": "toggle",
                    "numinlets": 1,
                    "numoutlets": 1,
                    "outlettype": [ "int" ],
                    "parameter_enable": 0,
                    "patching_rect": [ 409.0, 38.0, 24.0, 24.0 ]
                }
            }
        ],
        "lines": [
            {
                "patchline": {
                    "destination": [ "obj-59", 0 ],
                    "midpoints": [ 419.1000061035156, 542.6000079214573, 419.0022650063038, 542.6000079214573 ],
                    "source": [ "obj-10", 0 ]
                }
            },
            {
                "patchline": {
                    "destination": [ "obj-12", 1 ],
                    "order": 0,
                    "source": [ "obj-11", 0 ]
                }
            },
            {
                "patchline": {
                    "destination": [ "obj-12", 0 ],
                    "order": 1,
                    "source": [ "obj-11", 0 ]
                }
            },
            {
                "patchline": {
                    "destination": [ "obj-7", 1 ],
                    "source": [ "obj-13", 0 ]
                }
            },
            {
                "patchline": {
                    "destination": [ "obj-8", 1 ],
                    "source": [ "obj-14", 0 ]
                }
            },
            {
                "patchline": {
                    "destination": [ "obj-47", 0 ],
                    "order": 0,
                    "source": [ "obj-15", 0 ]
                }
            },
            {
                "patchline": {
                    "destination": [ "obj-48", 0 ],
                    "order": 0,
                    "source": [ "obj-15", 1 ]
                }
            },
            {
                "patchline": {
                    "destination": [ "obj-49", 0 ],
                    "order": 0,
                    "source": [ "obj-15", 2 ]
                }
            },
            {
                "patchline": {
                    "destination": [ "obj-50", 0 ],
                    "order": 0,
                    "source": [ "obj-15", 3 ]
                }
            },
            {
                "patchline": {
                    "destination": [ "obj-51", 0 ],
                    "order": 1,
                    "source": [ "obj-15", 3 ]
                }
            },
            {
                "patchline": {
                    "destination": [ "obj-52", 0 ],
                    "order": 1,
                    "source": [ "obj-15", 2 ]
                }
            },
            {
                "patchline": {
                    "destination": [ "obj-53", 0 ],
                    "order": 1,
                    "source": [ "obj-15", 1 ]
                }
            },
            {
                "patchline": {
                    "destination": [ "obj-54", 0 ],
                    "order": 1,
                    "source": [ "obj-15", 0 ]
                }
            },
            {
                "patchline": {
                    "destination": [ "obj-20", 1 ],
                    "source": [ "obj-16", 0 ]
                }
            },
            {
                "patchline": {
                    "destination": [ "obj-21", 1 ],
                    "source": [ "obj-17", 0 ]
                }
            },
            {
                "patchline": {
                    "destination": [ "obj-59", 0 ],
                    "midpoints": [ 520.7000076174736, 542.6000079214573, 419.0022650063038, 542.6000079214573 ],
                    "source": [ "obj-18", 0 ]
                }
            },
            {
                "patchline": {
                    "destination": [ "obj-18", 0 ],
                    "source": [ "obj-19", 0 ]
                }
            },
            {
                "patchline": {
                    "destination": [ "obj-3", 0 ],
                    "source": [ "obj-2", 0 ]
                }
            },
            {
                "patchline": {
                    "destination": [ "obj-21", 0 ],
                    "source": [ "obj-20", 0 ]
                }
            },
            {
                "patchline": {
                    "destination": [ "obj-19", 0 ],
                    "source": [ "obj-21", 0 ]
                }
            },
            {
                "patchline": {
                    "destination": [ "obj-26", 1 ],
                    "source": [ "obj-22", 0 ]
                }
            },
            {
                "patchline": {
                    "destination": [ "obj-27", 1 ],
                    "source": [ "obj-23", 0 ]
                }
            },
            {
                "patchline": {
                    "destination": [ "obj-59", 0 ],
                    "midpoints": [ 623.1000091433525, 542.6000079214573, 419.0022650063038, 542.6000079214573 ],
                    "source": [ "obj-24", 0 ]
                }
            },
            {
                "patchline": {
                    "destination": [ "obj-24", 0 ],
                    "source": [ "obj-25", 0 ]
                }
            },
            {
                "patchline": {
                    "destination": [ "obj-27", 0 ],
                    "source": [ "obj-26", 0 ]
                }
            },
            {
                "patchline": {
                    "destination": [ "obj-25", 0 ],
                    "source": [ "obj-27", 0 ]
                }
            },
            {
                "patchline": {
                    "destination": [ "obj-32", 1 ],
                    "source": [ "obj-28", 0 ]
                }
            },
            {
                "patchline": {
                    "destination": [ "obj-33", 1 ],
                    "source": [ "obj-29", 0 ]
                }
            },
            {
                "patchline": {
                    "destination": [ "obj-6", 0 ],
                    "source": [ "obj-3", 0 ]
                }
            },
            {
                "patchline": {
                    "destination": [ "obj-59", 0 ],
                    "midpoints": [ 724.7000106573105, 542.6000079214573, 419.0022650063038, 542.6000079214573 ],
                    "source": [ "obj-30", 0 ]
                }
            },
            {
                "patchline": {
                    "destination": [ "obj-30", 0 ],
                    "source": [ "obj-31", 0 ]
                }
            },
            {
                "patchline": {
                    "destination": [ "obj-33", 0 ],
                    "source": [ "obj-32", 0 ]
                }
            },
            {
                "patchline": {
                    "destination": [ "obj-31", 0 ],
                    "source": [ "obj-33", 0 ]
                }
            },
            {
                "patchline": {
                    "destination": [ "obj-10", 0 ],
                    "midpoints": [ 438.3000063896179, 489.1000071167946, 419.1000061035156, 489.1000071167946 ],
                    "source": [ "obj-34", 0 ]
                }
            },
            {
                "patchline": {
                    "destination": [ "obj-34", 0 ],
                    "source": [ "obj-35", 0 ]
                }
            },
            {
                "patchline": {
                    "destination": [ "obj-18", 0 ],
                    "midpoints": [ 539.9000079035759, 489.1000071167946, 520.7000076174736, 489.1000071167946 ],
                    "source": [ "obj-36", 0 ]
                }
            },
            {
                "patchline": {
                    "destination": [ "obj-36", 0 ],
                    "source": [ "obj-37", 0 ]
                }
            },
            {
                "patchline": {
                    "destination": [ "obj-30", 0 ],
                    "midpoints": [ 743.9000109434128, 489.1000071167946, 724.7000106573105, 489.1000071167946 ],
                    "source": [ "obj-38", 0 ]
                }
            },
            {
                "patchline": {
                    "destination": [ "obj-38", 0 ],
                    "source": [ "obj-39", 0 ]
                }
            },
            {
                "patchline": {
                    "destination": [ "obj-1", 0 ],
                    "source": [ "obj-4", 0 ]
                }
            },
            {
                "patchline": {
                    "destination": [ "obj-24", 0 ],
                    "midpoints": [ 642.3000094294548, 489.1000071167946, 623.1000091433525, 489.1000071167946 ],
                    "source": [ "obj-40", 0 ]
                }
            },
            {
                "patchline": {
                    "destination": [ "obj-40", 0 ],
                    "source": [ "obj-41", 0 ]
                }
            },
            {
                "patchline": {
                    "destination": [ "obj-13", 0 ],
                    "source": [ "obj-47", 0 ]
                }
            },
            {
                "patchline": {
                    "destination": [ "obj-17", 0 ],
                    "source": [ "obj-48", 0 ]
                }
            },
            {
                "patchline": {
                    "destination": [ "obj-23", 0 ],
                    "source": [ "obj-49", 0 ]
                }
            },
            {
                "patchline": {
                    "destination": [ "obj-29", 0 ],
                    "source": [ "obj-50", 0 ]
                }
            },
            {
                "patchline": {
                    "destination": [ "obj-28", 0 ],
                    "source": [ "obj-51", 0 ]
                }
            },
            {
                "patchline": {
                    "destination": [ "obj-22", 0 ],
                    "source": [ "obj-52", 0 ]
                }
            },
            {
                "patchline": {
                    "destination": [ "obj-16", 0 ],
                    "source": [ "obj-53", 0 ]
                }
            },
            {
                "patchline": {
                    "destination": [ "obj-14", 0 ],
                    "source": [ "obj-54", 0 ]
                }
            },
            {
                "patchline": {
                    "destination": [ "obj-3", 1 ],
                    "source": [ "obj-56", 0 ]
                }
            },
            {
                "patchline": {
                    "destination": [ "obj-13", 1 ],
                    "midpoints": [ 784.900011241436, 252.20000359416008, 479.10000640153885, 252.20000359416008 ],
                    "order": 6,
                    "source": [ "obj-58", 0 ]
                }
            },
            {
                "patchline": {
                    "destination": [ "obj-14", 1 ],
                    "midpoints": [ 784.900011241436, 205.00000289082527, 479.10000640153885, 205.00000289082527 ],
                    "order": 7,
                    "source": [ "obj-58", 0 ]
                }
            },
            {
                "patchline": {
                    "destination": [ "obj-16", 1 ],
                    "midpoints": [ 784.900011241436, 205.00000289082527, 581.0333413481712, 205.00000289082527 ],
                    "order": 5,
                    "source": [ "obj-58", 0 ]
                }
            },
            {
                "patchline": {
                    "destination": [ "obj-17", 1 ],
                    "midpoints": [ 784.900011241436, 252.20000359416008, 580.7000079154968, 252.20000359416008 ],
                    "order": 4,
                    "source": [ "obj-58", 0 ]
                }
            },
            {
                "patchline": {
                    "destination": [ "obj-22", 1 ],
                    "midpoints": [ 784.900011241436, 205.00000289082527, 682.9666762948036, 205.00000289082527 ],
                    "order": 3,
                    "source": [ "obj-58", 0 ]
                }
            },
            {
                "patchline": {
                    "destination": [ "obj-23", 1 ],
                    "midpoints": [ 784.900011241436, 252.20000359416008, 683.1000094413757, 252.20000359416008 ],
                    "order": 2,
                    "source": [ "obj-58", 0 ]
                }
            },
            {
                "patchline": {
                    "destination": [ "obj-28", 1 ],
                    "midpoints": [ 784.900011241436, 205.00000289082527, 784.900011241436, 205.00000289082527 ],
                    "order": 1,
                    "source": [ "obj-58", 0 ]
                }
            },
            {
                "patchline": {
                    "destination": [ "obj-29", 1 ],
                    "midpoints": [ 784.900011241436, 252.20000359416008, 784.7000109553337, 252.20000359416008 ],
                    "order": 0,
                    "source": [ "obj-58", 0 ]
                }
            },
            {
                "patchline": {
                    "destination": [ "obj-6", 4 ],
                    "midpoints": [ 784.900011241436, 198.40000247955322, 766.1190534968628, 198.40000247955322, 766.1190534968628, 94.19478227233049, 460.5, 94.19478227233049 ],
                    "order": 8,
                    "source": [ "obj-58", 0 ]
                }
            },
            {
                "patchline": {
                    "destination": [ "obj-80", 0 ],
                    "source": [ "obj-59", 0 ]
                }
            },
            {
                "patchline": {
                    "destination": [ "obj-15", 0 ],
                    "midpoints": [ 418.5, 143.7000012397766, 439.10000640153885, 143.7000012397766 ],
                    "order": 3,
                    "source": [ "obj-6", 0 ]
                }
            },
            {
                "patchline": {
                    "destination": [ "obj-20", 0 ],
                    "midpoints": [ 418.5, 158.5000014603138, 520.7000076174736, 158.5000014603138 ],
                    "order": 2,
                    "source": [ "obj-6", 0 ]
                }
            },
            {
                "patchline": {
                    "destination": [ "obj-26", 0 ],
                    "midpoints": [ 418.5, 158.5000014603138, 623.1000091433525, 158.5000014603138 ],
                    "order": 1,
                    "source": [ "obj-6", 0 ]
                }
            },
            {
                "patchline": {
                    "destination": [ "obj-32", 0 ],
                    "midpoints": [ 418.5, 158.5000014603138, 724.7000106573105, 158.5000014603138 ],
                    "order": 0,
                    "source": [ "obj-6", 0 ]
                }
            },
            {
                "patchline": {
                    "destination": [ "obj-65", 0 ],
                    "midpoints": [ 460.5, 131.0, 493.9000015258789, 131.0, 493.9000015258789, 88.0, 527.3000030517578, 88.0 ],
                    "order": 1,
                    "source": [ "obj-6", 3 ]
                }
            },
            {
                "patchline": {
                    "destination": [ "obj-79", 0 ],
                    "midpoints": [ 460.5, 131.0, 655.4840842431877, 131.0, 655.4840842431877, 88.0, 668.900011241436, 88.0 ],
                    "order": 0,
                    "source": [ "obj-6", 3 ]
                }
            },
            {
                "patchline": {
                    "destination": [ "obj-8", 0 ],
                    "midpoints": [ 418.5, 158.5000014603138, 419.1000061035156, 158.5000014603138 ],
                    "order": 4,
                    "source": [ "obj-6", 0 ]
                }
            },
            {
                "patchline": {
                    "destination": [ "obj-59", 1 ],
                    "source": [ "obj-60", 0 ]
                }
            },
            {
                "patchline": {
                    "destination": [ "obj-60", 0 ],
                    "source": [ "obj-62", 0 ]
                }
            },
            {
                "patchline": {
                    "destination": [ "obj-56", 0 ],
                    "midpoints": [ 527.3000030517578, 159.1493220627308, 510.71589529002085, 159.1493220627308, 510.71589529002085, 29.91480467596557, 462.5, 29.91480467596557 ],
                    "source": [ "obj-63", 0 ]
                }
            },
            {
                "patchline": {
                    "destination": [ "obj-63", 0 ],
                    "order": 0,
                    "source": [ "obj-65", 0 ]
                }
            },
            {
                "patchline": {
                    "destination": [ "obj-83", 0 ],
                    "midpoints": [ 527.3000030517578, 593.4354870021343, 258.91402864456177, 593.4354870021343 ],
                    "order": 1,
                    "source": [ "obj-65", 0 ]
                }
            },
            {
                "patchline": {
                    "destination": [ "obj-69", 0 ],
                    "source": [ "obj-68", 0 ]
                }
            },
            {
                "patchline": {
                    "destination": [ "obj-77", 0 ],
                    "midpoints": [ 671.7222330868244, 713.0685966294259, 418.944463968277, 713.0685966294259 ],
                    "source": [ "obj-69", 0 ]
                }
            },
            {
                "patchline": {
                    "destination": [ "obj-9", 0 ],
                    "source": [ "obj-7", 0 ]
                }
            },
            {
                "patchline": {
                    "destination": [ "obj-77", 2 ],
                    "source": [ "obj-71", 0 ]
                }
            },
            {
                "patchline": {
                    "destination": [ "obj-71", 0 ],
                    "source": [ "obj-72", 0 ]
                }
            },
            {
                "patchline": {
                    "destination": [ "obj-77", 1 ],
                    "source": [ "obj-73", 0 ]
                }
            },
            {
                "patchline": {
                    "destination": [ "obj-73", 0 ],
                    "source": [ "obj-74", 0 ]
                }
            },
            {
                "patchline": {
                    "destination": [ "obj-88", 0 ],
                    "source": [ "obj-77", 0 ]
                }
            },
            {
                "patchline": {
                    "destination": [ "obj-58", 0 ],
                    "midpoints": [ 668.900011241436, 153.87922924465965, 784.900011241436, 153.87922924465965 ],
                    "source": [ "obj-78", 0 ]
                }
            },
            {
                "patchline": {
                    "destination": [ "obj-78", 0 ],
                    "order": 0,
                    "source": [ "obj-79", 0 ]
                }
            },
            {
                "patchline": {
                    "destination": [ "obj-85", 0 ],
                    "midpoints": [ 668.900011241436, 593.414382532239, 489.5000228881836, 593.414382532239 ],
                    "order": 1,
                    "source": [ "obj-79", 0 ]
                }
            },
            {
                "patchline": {
                    "destination": [ "obj-7", 0 ],
                    "source": [ "obj-8", 0 ]
                }
            },
            {
                "patchline": {
                    "destination": [ "obj-81", 0 ],
                    "source": [ "obj-80", 0 ]
                }
            },
            {
                "patchline": {
                    "destination": [ "obj-77", 0 ],
                    "order": 0,
                    "source": [ "obj-81", 0 ]
                }
            },
            {
                "patchline": {
                    "destination": [ "obj-82", 0 ],
                    "midpoints": [ 419.0022650063038, 710.2805472314358, 333.7081468254328, 710.2805472314358, 333.7081468254328, 640.0868481658399, 248.41402864456177, 640.0868481658399 ],
                    "order": 1,
                    "source": [ "obj-81", 0 ]
                }
            },
            {
                "patchline": {
                    "destination": [ "obj-80", 0 ],
                    "midpoints": [ 248.41402864456177, 699.8733073472977, 333.7081468254328, 699.8733073472977, 333.7081468254328, 632.0814519822598, 419.0022650063038, 632.0814519822598 ],
                    "source": [ "obj-82", 0 ]
                }
            },
            {
                "patchline": {
                    "destination": [ "obj-82", 1 ],
                    "source": [ "obj-83", 0 ]
                }
            },
            {
                "patchline": {
                    "destination": [ "obj-81", 0 ],
                    "midpoints": [ 489.5000228881836, 671.0979255113052, 419.0022650063038, 671.0979255113052 ],
                    "source": [ "obj-85", 0 ]
                }
            },
            {
                "patchline": {
                    "destination": [ "obj-85", 0 ],
                    "midpoints": [ 596.7222502231598, 594.055583357811, 489.5000228881836, 594.055583357811 ],
                    "source": [ "obj-87", 0 ]
                }
            },
            {
                "patchline": {
                    "destination": [ "obj-11", 0 ],
                    "source": [ "obj-88", 0 ]
                }
            },
            {
                "patchline": {
                    "destination": [ "obj-90", 0 ],
                    "source": [ "obj-89", 0 ]
                }
            },
            {
                "patchline": {
                    "destination": [ "obj-10", 0 ],
                    "source": [ "obj-9", 0 ]
                }
            },
            {
                "patchline": {
                    "destination": [ "obj-88", 1 ],
                    "source": [ "obj-90", 0 ]
                }
            },
            {
                "patchline": {
                    "destination": [ "obj-88", 2 ],
                    "source": [ "obj-92", 0 ]
                }
            }
        ],
        "parameters": {
            "obj-11": [ "gain~", "gain~", 0 ],
            "parameterbanks": {
                "0": {
                    "index": 0,
                    "name": "",
                    "parameters": [ "-", "-", "-", "-", "-", "-", "-", "-" ],
                    "buttons": [ "-", "-", "-", "-", "-", "-", "-", "-" ]
                }
            },
            "inherited_shortname": 1
        },
        "autosave": 0
    }
}